<svg xmlns="http://www.w3.org/2000/svg" xmlns:xlink="http://www.w3.org/1999/xlink" width="52.286" height="58" viewBox="0 0 52.286 58">
  <defs>
    <filter id="css3" x="0" y="0" width="52.286" height="58" filterUnits="userSpaceOnUse">
      <feOffset dy="3" input="SourceAlpha"/>
      <feGaussianBlur stdDeviation="3" result="blur"/>
      <feFlood flood-opacity="0.2"/>
      <feComposite operator="in" in2="blur"/>
      <feComposite in="SourceGraphic"/>
    </filter>
  </defs>
  <g transform="matrix(1, 0, 0, 1, 0, 0)" filter="url(#css3)">
    <path id="css3-2" data-name="css3" d="M0,2.25,3.116,37.589,17.143,42.25,31.17,37.589,34.286,2.25ZM27.955,9.393l-.429,4.223-10.295,4.4-.027.009h9.955L26.018,31.116,17.25,33.679,8.429,31.071l-.571-6.6h4.366l.286,3.42,4.7,1.188,4.884-1.375.33-5.5L7.571,22.161v-.009l-.018.009-.321-4.134,10.009-4.17.58-.241H6.848L6.33,9.393Z" transform="translate(9 3.75)" fill="#2965f1"/>
  </g>
</svg>
