<svg xmlns="http://www.w3.org/2000/svg" xmlns:xlink="http://www.w3.org/1999/xlink" width="46.951" height="58" viewBox="0 0 46.951 58">
  <defs>
    <linearGradient id="linear-gradient" x1="0.5" x2="0.5" y2="1" gradientUnits="objectBoundingBox">
      <stop offset="0" stop-color="#f7c52c"/>
      <stop offset="1" stop-color="#ee7e0b"/>
    </linearGradient>
    <filter id="firebase" x="0" y="0" width="46.951" height="58" filterUnits="userSpaceOnUse">
      <feOffset dy="3" input="SourceAlpha"/>
      <feGaussianBlur stdDeviation="3" result="blur"/>
      <feFlood flood-color="#202020" flood-opacity="0.161"/>
      <feComposite operator="in" in2="blur"/>
      <feComposite in="SourceGraphic"/>
    </filter>
  </defs>
  <g transform="matrix(1, 0, 0, 1, 0, 0)" filter="url(#firebase)">
    <path id="firebase-2" data-name="firebase" d="M5.931,26.122,9.873.768A.9.9,0,0,1,11.564.482L15.8,8.434Zm27.992,6.152L30.17,8.942a.905.905,0,0,0-1.53-.492L4.972,32.274l13.1,7.38a2.7,2.7,0,0,0,2.645,0l13.21-7.38ZM23.281,11.914l-3.033-5.8a.9.9,0,0,0-1.6,0L5.331,29.974Z" transform="translate(4.03 6)" fill="url(#linear-gradient)"/>
  </g>
</svg>
