<svg xmlns="http://www.w3.org/2000/svg" width="40" height="40" viewBox="0 0 40 40">
  <path id="github" d="M13.379,32.77c0,.165-.185.3-.419.3-.266.025-.452-.108-.452-.3,0-.165.185-.3.419-.3C13.169,32.448,13.379,32.58,13.379,32.77ZM10.871,32.4c-.056.165.1.356.347.405a.374.374,0,0,0,.5-.165c.048-.165-.1-.356-.347-.43A.41.41,0,0,0,10.871,32.4Zm3.565-.141c-.234.058-.4.215-.371.405.024.165.234.273.476.215s.4-.215.371-.38S14.669,32.233,14.435,32.258ZM19.742.563C8.556.563,0,9.272,0,20.744A20.706,20.706,0,0,0,13.669,40.529c1.032.19,1.4-.463,1.4-1,0-.513-.024-3.342-.024-5.078,0,0-5.645,1.241-6.831-2.465,0,0-.919-2.407-2.242-3.027,0,0-1.847-1.3.129-1.274A4.24,4.24,0,0,1,9.21,29.818c1.766,3.193,4.726,2.275,5.879,1.729a4.643,4.643,0,0,1,1.29-2.787c-4.508-.513-9.056-1.183-9.056-9.14a6.351,6.351,0,0,1,1.9-4.872,8,8,0,0,1,.21-5.616C11.121,8.594,15,11.365,15,11.365a18.593,18.593,0,0,1,10.129,0s3.879-2.779,5.565-2.233a8,8,0,0,1,.21,5.616,6.5,6.5,0,0,1,2.081,4.872c0,7.982-4.75,8.619-9.258,9.14A4.959,4.959,0,0,1,25.1,32.6c0,2.787-.024,6.236-.024,6.915,0,.538.371,1.191,1.4,1C34.532,37.766,40,29.917,40,20.744A20.016,20.016,0,0,0,19.742.563ZM7.839,29.09c-.1.083-.081.273.056.43.129.132.315.19.419.083.1-.083.081-.273-.056-.43C8.129,29.04,7.944,28.982,7.839,29.09Zm-.871-.67c-.056.108.024.24.185.323a.236.236,0,0,0,.347-.058c.056-.108-.024-.24-.185-.323C7.153,28.312,7.024,28.337,6.968,28.42Zm2.613,2.945c-.129.108-.081.356.1.513.185.19.419.215.524.083.1-.108.056-.356-.1-.513C9.927,31.257,9.685,31.232,9.581,31.364Zm-.919-1.216c-.129.083-.129.3,0,.488s.347.273.452.19a.384.384,0,0,0,0-.513C9,30.124,8.79,30.041,8.661,30.148Z" transform="translate(0 -0.563)" fill="#f2f2f2"/>
</svg>
