<svg xmlns="http://www.w3.org/2000/svg" width="40" height="40" viewBox="0 0 40 40">
  <path id="link" d="M25.517,14.484a11.869,11.869,0,0,1,.028,16.765l-.028.029-5.25,5.25A11.875,11.875,0,0,1,3.473,19.734l2.9-2.9a1.249,1.249,0,0,1,2.132.829,14.4,14.4,0,0,0,.757,4.119,1.257,1.257,0,0,1-.3,1.3L7.943,24.1a5.625,5.625,0,1,0,7.9,8.005l5.25-5.249a5.624,5.624,0,0,0,0-7.955,5.852,5.852,0,0,0-.808-.669,1.253,1.253,0,0,1-.543-.985,3.112,3.112,0,0,1,.914-2.329l1.645-1.645a1.255,1.255,0,0,1,1.608-.135,11.912,11.912,0,0,1,1.6,1.344ZM36.527,3.473a11.888,11.888,0,0,0-16.794,0l-5.25,5.25-.028.029A11.877,11.877,0,0,0,16.087,26.86a1.255,1.255,0,0,0,1.608-.135L19.34,25.08a3.112,3.112,0,0,0,.914-2.329,1.253,1.253,0,0,0-.543-.985A5.853,5.853,0,0,1,18.9,21.1a5.624,5.624,0,0,1,0-7.955l5.25-5.249a5.625,5.625,0,1,1,7.9,8.005L31.034,16.92a1.257,1.257,0,0,0-.3,1.3,14.4,14.4,0,0,1,.757,4.119,1.249,1.249,0,0,0,2.132.829l2.9-2.9a11.888,11.888,0,0,0,0-16.794Z" fill="#f2f2f2"/>
</svg>
