<svg xmlns="http://www.w3.org/2000/svg" xmlns:xlink="http://www.w3.org/1999/xlink" width="63.712" height="58" viewBox="0 0 63.712 58">
  <defs>
    <linearGradient id="linear-gradient" x1="0.5" x2="0.5" y2="1" gradientUnits="objectBoundingBox">
      <stop offset="0" stop-color="#61dafb"/>
      <stop offset="1" stop-color="#61dafb"/>
    </linearGradient>
    <filter id="react" x="0" y="0" width="63.712" height="58" filterUnits="userSpaceOnUse">
      <feOffset dy="3" input="SourceAlpha"/>
      <feGaussianBlur stdDeviation="3" result="blur"/>
      <feFlood flood-opacity="0.2"/>
      <feComposite operator="in" in2="blur"/>
      <feComposite in="SourceGraphic"/>
    </filter>
  </defs>
  <g transform="matrix(1, 0, 0, 1, 0, 0)" filter="url(#react)">
    <path id="react-2" data-name="react" d="M37.337,15.213q-.723-.241-1.446-.455c.08-.33.152-.661.223-.991,1.1-5.321.375-9.6-2.062-11.008C31.7,1.411,27.874,2.812,24,6.187c-.384.33-.759.679-1.116,1.027-.241-.232-.491-.464-.741-.687C18.079,2.919,14.008,1.4,11.571,2.821,9.232,4.178,8.535,8.2,9.517,13.24c.1.5.205.991.33,1.491-.571.161-1.134.339-1.661.527C3.419,16.91,0,19.517,0,22.213,0,25,3.643,27.793,8.6,29.489c.4.134.8.268,1.214.384-.134.536-.25,1.062-.357,1.607-.937,4.955-.205,8.883,2.134,10.232C14,43.1,18.053,41.676,22,38.221c.312-.277.625-.562.937-.866.393.384.8.75,1.214,1.107,3.821,3.286,7.6,4.616,9.928,3.268,2.411-1.393,3.2-5.616,2.178-10.758q-.121-.589-.268-1.205c.286-.08.562-.17.839-.259,5.152-1.705,8.883-4.464,8.883-7.294,0-2.705-3.518-5.33-8.375-7Zm-12.08-7.58c3.321-2.893,6.419-4.027,7.83-3.214,1.509.866,2.089,4.366,1.143,8.964-.062.3-.125.6-.205.893a45.705,45.705,0,0,0-6.009-.946,45.109,45.109,0,0,0-3.8-4.741c.348-.33.687-.643,1.045-.955ZM14.928,26.847c.455.777.92,1.553,1.411,2.312a40.428,40.428,0,0,1-4.143-.67,41.706,41.706,0,0,1,1.455-3.973c.411.786.83,1.562,1.277,2.33Zm-2.705-10.74c1.286-.286,2.652-.518,4.071-.7-.473.741-.937,1.5-1.375,2.268S14.053,19.213,13.651,20c-.562-1.33-1.036-2.634-1.428-3.893Zm2.446,6.151c.589-1.232,1.232-2.437,1.911-3.625s1.411-2.339,2.178-3.473c1.339-.1,2.705-.152,4.1-.152s2.768.054,4.1.152q1.138,1.687,2.17,3.455t1.937,3.607q-.9,1.848-1.928,3.643c-.679,1.187-1.4,2.339-2.161,3.482-1.33.1-2.714.143-4.116.143s-2.759-.045-4.071-.125q-1.165-1.7-2.2-3.482c-.687-1.187-1.321-2.393-1.92-3.625Zm16.124,4.571c.455-.786.884-1.58,1.3-2.384A41.445,41.445,0,0,1,33.605,28.4a39.215,39.215,0,0,1-4.2.714C29.891,28.364,30.347,27.6,30.793,26.829ZM32.079,20c-.42-.786-.848-1.571-1.295-2.339s-.893-1.509-1.366-2.25a41.086,41.086,0,0,1,4.1.714A39.512,39.512,0,0,1,32.079,20Zm-9.2-10.044a39.205,39.205,0,0,1,2.643,3.2c-1.768-.08-3.544-.08-5.312,0C21.079,12,21.981,10.928,22.874,9.955ZM12.517,4.482c1.5-.875,4.83.375,8.339,3.482.223.2.446.411.679.625A45.359,45.359,0,0,0,17.7,13.33a47.063,47.063,0,0,0-6,.929c-.116-.455-.214-.92-.312-1.384-.839-4.321-.286-7.58,1.125-8.392ZM10.33,28.016c-.375-.107-.741-.223-1.107-.348A18.209,18.209,0,0,1,3.6,24.882a4.006,4.006,0,0,1-1.678-2.67c0-1.634,2.821-3.723,6.892-5.143.509-.179,1.027-.339,1.545-.491a47.474,47.474,0,0,0,2.187,5.678,48.8,48.8,0,0,0-2.214,5.759Zm10.41,8.75A16.341,16.341,0,0,1,15.7,39.917a3.952,3.952,0,0,1-3.152.116c-1.42-.821-2.009-3.973-1.205-8.214.1-.5.205-1,.33-1.491a44.665,44.665,0,0,0,6.062.875A47.116,47.116,0,0,0,21.6,35.971C21.311,36.248,21.026,36.516,20.74,36.766Zm2.187-2.17c-.911-.982-1.821-2.071-2.705-3.241.857.036,1.741.054,2.634.054.92,0,1.821-.018,2.714-.062a38.5,38.5,0,0,1-2.643,3.25ZM34.6,37.275a3.968,3.968,0,0,1-1.473,2.794c-1.42.821-4.446-.25-7.714-3.053-.375-.321-.75-.67-1.134-1.027A44.166,44.166,0,0,0,28.043,31.2a44.012,44.012,0,0,0,6.089-.937c.089.366.17.732.241,1.089a16.275,16.275,0,0,1,.223,5.919Zm1.625-9.6c-.25.08-.5.161-.759.232a45.355,45.355,0,0,0-2.277-5.7A45.129,45.129,0,0,0,35.373,16.6c.464.134.911.277,1.339.42,4.16,1.428,7.08,3.553,7.08,5.178,0,1.75-3.116,4.009-7.571,5.482ZM22.856,26.338a4.089,4.089,0,1,0-4.089-4.089A4.088,4.088,0,0,0,22.856,26.338Z" transform="translate(9 3.75)" fill="url(#linear-gradient)"/>
  </g>
</svg>
