<svg xmlns="http://www.w3.org/2000/svg" xmlns:xlink="http://www.w3.org/1999/xlink" width="58" height="58" viewBox="0 0 58 58">
  <defs>
    <filter id="sass" x="0" y="0" width="58" height="58" filterUnits="userSpaceOnUse">
      <feOffset dy="3" input="SourceAlpha"/>
      <feGaussianBlur stdDeviation="3" result="blur"/>
      <feFlood flood-opacity="0.2"/>
      <feComposite operator="in" in2="blur"/>
      <feComposite in="SourceGraphic"/>
    </filter>
  </defs>
  <g transform="matrix(1, 0, 0, 1, 0, 0)" filter="url(#sass)">
    <path id="sass-2" data-name="sass" d="M20,0A20,20,0,1,1,0,20,20,20,0,0,1,20,0ZM16.025,26.663a5.111,5.111,0,0,1-.04,2.987l-.108.3c-.04.1-.087.2-.13.293a5.607,5.607,0,0,1-.925,1.35c-1.163,1.265-2.787,1.745-3.483,1.342-.75-.437-.377-2.225.973-3.65a13.607,13.607,0,0,1,3.533-2.515v0l.18-.1Zm16.518-18.1c-.9-3.555-6.8-4.723-12.37-2.742a28.019,28.019,0,0,0-9.488,5.445c-3.072,2.868-3.56,5.368-3.358,6.413.712,3.685,5.762,6.1,7.838,7.883v.01c-.612.3-5.093,2.548-6.143,4.875-1.125,2.45.175,4.2,1.025,4.425a6.319,6.319,0,0,0,6.775-2.748A6.913,6.913,0,0,0,17.5,26a7.777,7.777,0,0,1,3.05-.173c3.5.4,4.2,2.6,4.05,3.5A2.4,2.4,0,0,1,23.472,30.9c-.25.152-.325.2-.3.3.025.15.152.15.35.125a2.773,2.773,0,0,0,1.9-2.452c.075-2.15-1.977-4.548-5.625-4.5a9.014,9.014,0,0,0-3.125.427.6.6,0,0,0-.175-.175c-2.25-2.425-6.425-4.125-6.25-7.35.05-1.175.475-4.273,8-8.023,6.175-3.077,11.1-2.225,11.952-.35,1.222,2.673-2.627,7.65-9.052,8.373A4.822,4.822,0,0,1,17.1,16.248c-.348-.375-.4-.4-.523-.323-.2.1-.075.425,0,.625A3.849,3.849,0,0,0,18.9,18.375a12.29,12.29,0,0,0,7.5-.75c3.873-1.5,6.9-5.675,6.023-9.175l.122.112Z" transform="translate(9 6)" fill="#c69"/>
  </g>
</svg>
