<svg xmlns="http://www.w3.org/2000/svg" xmlns:xlink="http://www.w3.org/1999/xlink" width="58" height="57" viewBox="0 0 58 57">
  <defs>
    <linearGradient id="linear-gradient" x1="0.5" x2="0.5" y2="2.174" gradientUnits="objectBoundingBox">
      <stop offset="0" stop-color="#ef43bd"/>
      <stop offset="1" stop-color="#9e1d67"/>
    </linearGradient>
    <filter id="xd" x="0" y="0" width="58" height="57" filterUnits="userSpaceOnUse">
      <feOffset dy="3" input="SourceAlpha"/>
      <feGaussianBlur stdDeviation="3" result="blur"/>
      <feFlood flood-opacity="0.2"/>
      <feComposite operator="in" in2="blur"/>
      <feComposite in="SourceGraphic"/>
    </filter>
  </defs>
  <g transform="matrix(1, 0, 0, 1, 0, 0)" filter="url(#xd)">
    <path id="xd-2" data-name="xd" d="M32.917.45H7.083A7.077,7.077,0,0,0,0,7.533V32.367A7.077,7.077,0,0,0,7.083,39.45H32.917A7.077,7.077,0,0,0,40,32.367V7.533A7.077,7.077,0,0,0,32.917.45Zm5.4,31.267a6.038,6.038,0,0,1-6.033,6.067H7.717a6.06,6.06,0,0,1-6.05-6.05V8.167a6.06,6.06,0,0,1,6.05-6.05h24.55a6.05,6.05,0,0,1,6.05,6.05ZM15.817,18.7l4.667,8.967c.083.133.033.267-.1.267h-2.9a.327.327,0,0,1-.35-.217c-1.067-2.2-2.15-4.4-3.267-6.767h-.033c-1,2.233-2.1,4.583-3.167,6.783a.32.32,0,0,1-.3.183H7.617c-.167,0-.183-.133-.1-.233l4.567-8.7-4.417-8.8a.135.135,0,0,1,.1-.233h2.867a.262.262,0,0,1,.3.183c1.05,2.2,2.117,4.467,3.117,6.683h.033c.967-2.2,2.033-4.483,3.067-6.667.083-.133.133-.217.3-.217h2.683c.133,0,.183.1.1.233ZM21.3,21.417c0-3.883,2.583-6.917,6.683-6.917a7.391,7.391,0,0,1,.867.033V10.117a.167.167,0,0,1,.167-.167H31.65c.133,0,.167.05.167.133v15.3a11.871,11.871,0,0,0,.083,1.633c0,.1-.033.133-.133.183a9.928,9.928,0,0,1-4.267.967C23.883,28.183,21.3,25.95,21.3,21.417Zm7.55-4.267a2.521,2.521,0,0,0-.967-.167c-2.1,0-3.567,1.617-3.567,4.3,0,3.067,1.5,4.3,3.383,4.3a3.144,3.144,0,0,0,1.15-.183V17.15Z" transform="translate(9 5.55)" fill="url(#linear-gradient)"/>
  </g>
</svg>
