<svg xmlns="http://www.w3.org/2000/svg" xmlns:xlink="http://www.w3.org/1999/xlink" width="414" height="736" viewBox="0 0 414 736">
  <defs>
    <filter id="Rectangle_1" x="48" y="394" width="318" height="78" filterUnits="userSpaceOnUse">
      <feOffset dy="3" input="SourceAlpha"/>
      <feGaussianBlur stdDeviation="3" result="blur"/>
      <feFlood flood-opacity="0.302"/>
      <feComposite operator="in" in2="blur"/>
      <feComposite in="SourceGraphic"/>
    </filter>
    <filter id="Rectangle_1-2" x="48" y="474" width="318" height="78" filterUnits="userSpaceOnUse">
      <feOffset dy="3" input="SourceAlpha"/>
      <feGaussianBlur stdDeviation="3" result="blur-2"/>
      <feFlood flood-opacity="0.302"/>
      <feComposite operator="in" in2="blur-2"/>
      <feComposite in="SourceGraphic"/>
    </filter>
    <filter id="Rectangle_1-3" x="48" y="554" width="318" height="78" filterUnits="userSpaceOnUse">
      <feOffset dy="3" input="SourceAlpha"/>
      <feGaussianBlur stdDeviation="3" result="blur-3"/>
      <feFlood flood-opacity="0.302"/>
      <feComposite operator="in" in2="blur-3"/>
      <feComposite in="SourceGraphic"/>
    </filter>
    <clipPath id="clip-path">
      <rect id="Rectangle_2" data-name="Rectangle 2" width="320" height="190" transform="translate(47 40)" fill="#fff"/>
    </clipPath>
    <clipPath id="clip-Main">
      <rect width="414" height="736"/>
    </clipPath>
  </defs>
  <g id="Main" clip-path="url(#clip-Main)">
    <rect width="414" height="736" fill="#f2f2f2"/>
    <g id="Group_4" data-name="Group 4" transform="translate(0 73)">
      <g id="Group_1" data-name="Group 1">
        <g transform="matrix(1, 0, 0, 1, 0, -73)" filter="url(#Rectangle_1)">
          <rect id="Rectangle_1-4" data-name="Rectangle 1" width="300" height="60" rx="5" transform="translate(57 400)" fill="#1f4655"/>
        </g>
        <text id="Log_In" data-name="Log In" transform="translate(175 365)" fill="#fff" font-size="22" font-family="Poppins-Regular, Poppins"><tspan x="0" y="0">Log In</tspan></text>
      </g>
      <g id="Group_2" data-name="Group 2">
        <g transform="matrix(1, 0, 0, 1, 0, -73)" filter="url(#Rectangle_1-2)">
          <rect id="Rectangle_1-5" data-name="Rectangle 1" width="300" height="60" rx="5" transform="translate(57 480)" fill="#00aea0"/>
        </g>
        <text id="Sign_Up" data-name="Sign Up" transform="translate(166 445)" fill="#fff" font-size="22" font-family="Poppins-Regular, Poppins"><tspan x="0" y="0">Sign Up</tspan></text>
      </g>
      <g id="Group_3" data-name="Group 3">
        <g transform="matrix(1, 0, 0, 1, 0, -73)" filter="url(#Rectangle_1-3)">
          <rect id="Rectangle_1-6" data-name="Rectangle 1" width="300" height="60" rx="5" transform="translate(57 560)" fill="#db4437"/>
        </g>
        <text id="Google_Sign_In" data-name="Google Sign In" transform="translate(128 525)" fill="#fff" font-size="22" font-family="Poppins-Regular, Poppins"><tspan x="0" y="0">Google Sign In</tspan></text>
      </g>
    </g>
    <text id="Simple_App" data-name="Simple App" transform="translate(145 283)" fill="#1f4655" font-size="22" font-family="Poppins-Regular, Poppins"><tspan x="0" y="0">Simple App</tspan></text>
    <text id="Flutter_Firebase" data-name="Flutter &amp; Firebase" transform="translate(130 320)" fill="#1f4655" font-size="18" font-family="Poppins-Regular, Poppins"><tspan x="0" y="0">Flutter &amp; Firebase</tspan></text>
    <g id="Mask_Group_1" data-name="Mask Group 1" clip-path="url(#clip-path)">
      <g id="undraw_develop_app_kvt2" transform="translate(99.532 40)">
        <ellipse id="Ellipse_2" data-name="Ellipse 2" cx="21.159" cy="4.423" rx="21.159" ry="4.423" transform="translate(0 181.154)" fill="#e6e6e6"/>
        <path id="Path_1" data-name="Path 1" d="M91.225,144.788l.828,1.711s4.7,6.271,1.8,7.253-4.443-5.948-4.443-5.948l-.767-.97Z" transform="translate(-52.479 -24.96)" fill="#a0616a"/>
        <path id="Path_2" data-name="Path 2" d="M85.813,112.395l.772-.327A1.7,1.7,0,0,1,87.5,113.8c0,1.405-1.124,21.923-1.124,21.923l2.249,11.243-3.092.562-4.778-10.4Z" transform="translate(-52.479 -24.96)" fill="#575a89"/>
        <path id="Path_3" data-name="Path 3" d="M85.813,112.395l.772-.327A1.7,1.7,0,0,1,87.5,113.8c0,1.405-1.124,21.923-1.124,21.923l6.043,9.7-3.935,2.811-7.729-11.1Z" transform="translate(-52.479 -24.96)" fill="#575a89"/>
        <path id="Path_4" data-name="Path 4" d="M85.251,145s3.654,1.405,3.373,3.935-3.935,52.841-3.935,52.841l1.124,5.621-10.681.281-.281-36.258-7.589,36.258H56.581l7.589-63.8Z" transform="translate(-52.479 -24.96)" fill="#2f2e41"/>
        <path id="Path_5" data-name="Path 5" d="M84.407,206.273l2.53,2.53s5.9,1.124,4.5,3.092-16.021-.562-16.021-.562l.281-4.5Z" transform="translate(-52.479 -24.96)" fill="#2f2e41"/>
        <path id="Path_6" data-name="Path 6" d="M66.138,206.273l2.53,2.53s5.9,1.124,4.5,3.092-16.021-.562-16.021-.562l.281-4.5Z" transform="translate(-52.479 -24.96)" fill="#2f2e41"/>
        <circle id="Ellipse_3" data-name="Ellipse 3" cx="6.746" cy="6.746" r="6.746" transform="translate(17.032 63.825)" fill="#a0616a"/>
        <path id="Path_7" data-name="Path 7" d="M27.994,74.506l-.562,11.524L18.718,80.97l1.124-6.465Z" fill="#a0616a"/>
        <path id="Path_8" data-name="Path 8" d="M18.437,78.159l8.151,5.9,1.405-4.216,2.53,6.746L29.118,98.678Z" fill="#00aea0"/>
        <path id="Path_9" data-name="Path 9" d="M71.79,102.287l8.12,12.357.326-10.331,1,.788A4.635,4.635,0,0,1,83,108.741h0l3.935,3.654-1.405,14.054-.281,16.583s1.686,1.405,1.124,2.249a7.426,7.426,0,0,1-5.34,2.811c-2.53,0-18.27-1.967-18.27-3.092s.562-15.74.562-15.74V109.584l6.746-5.059Z" transform="translate(-52.479 -24.96)" fill="#575a89"/>
        <path id="Path_10" data-name="Path 10" d="M9.724,123.974l3.654,5.34,1.405-6.184L13.1,122.006Z" fill="#a0616a"/>
        <rect id="Rectangle_3" data-name="Rectangle 3" width="15.602" height="0.562" transform="translate(22.045 146.663) rotate(-69.737)" opacity="0.2"/>
        <path id="Path_11" data-name="Path 11" d="M72.181,88.925s.843-4.216,5.621-3.373l-.562.281s4.5-.562,3.935,1.967c0,0,3.654,2.249,2.811,4.778a28.6,28.6,0,0,0-1.124,4.5l-.843-.843s-.843-5.621-5.9-5.059c-3.794.422-5.34,2.213-5.736,3.5a11.407,11.407,0,0,1-.694,1.767l-.316.069S67.684,90.331,72.181,88.925Z" transform="translate(-52.479 -24.96)" fill="#2f2e41"/>
        <path id="Path_12" data-name="Path 12" d="M66.419,109.3l-2.559-.119-.533.4a16.827,16.827,0,0,0-1.686,1.967c-.562.843-7.87,21.361-7.87,21.361a7.162,7.162,0,0,0,.562,3.654c.843,1.967,7.589,13.772,7.589,13.772l5.059-3.092-6.746-13.772,4.778-6.746Z" transform="translate(-52.479 -24.96)" fill="#575a89"/>
        <path id="Path_13" data-name="Path 13" d="M216,68.006h-1V40.741a15.78,15.78,0,0,0-15.781-15.78H141.455a15.78,15.78,0,0,0-15.781,15.781v149.58a15.78,15.78,0,0,0,15.781,15.78h57.766A15.78,15.78,0,0,0,215,190.321V87.414h1Z" transform="translate(-52.479 -24.96)" fill="#3f3d56"/>
        <path id="Path_14" data-name="Path 14" d="M211.784,39.684V191.378a11.968,11.968,0,0,1-11.964,11.967H140.868A11.97,11.97,0,0,1,128.9,191.376V39.684a11.97,11.97,0,0,1,11.972-11.967h7.151a5.691,5.691,0,0,0,5.265,7.835h33.609a5.691,5.691,0,0,0,5.265-7.835h7.66a11.969,11.969,0,0,1,11.967,11.964Z" transform="translate(-52.479 -24.96)" fill="#e6e6e6"/>
        <rect id="Rectangle_4" data-name="Rectangle 4" width="59.472" height="59.472" transform="translate(88.125 93.72)" fill="#fff"/>
        <rect id="Rectangle_5" data-name="Rectangle 5" width="33.546" height="2.521" transform="translate(101.257 66.904)" fill="#fff"/>
        <rect id="Rectangle_6" data-name="Rectangle 6" width="42.217" height="2.521" transform="translate(96.768 73.456)" fill="#fff"/>
        <rect id="Rectangle_7" data-name="Rectangle 7" width="23.15" height="1.74" transform="translate(105.262 99.461)" fill="#e6e6e6"/>
        <rect id="Rectangle_8" data-name="Rectangle 8" width="35.749" height="1.74" transform="translate(105.262 104.569)" fill="#00aea0"/>
        <rect id="Rectangle_9" data-name="Rectangle 9" width="29.135" height="1.74" transform="translate(105.634 109.434)" fill="#e6e6e6"/>
        <rect id="Rectangle_10" data-name="Rectangle 10" width="17.008" height="1.74" transform="translate(105.262 114.771)" fill="#e6e6e6"/>
        <rect id="Rectangle_11" data-name="Rectangle 11" width="25.67" height="1.74" transform="translate(105.262 119.985)" fill="#00aea0"/>
        <rect id="Rectangle_12" data-name="Rectangle 12" width="2.835" height="2.835" transform="translate(94.711 98.914)" fill="#e6e6e6"/>
        <rect id="Rectangle_13" data-name="Rectangle 13" width="2.835" height="2.835" transform="translate(94.711 104.021)" fill="#00aea0"/>
        <rect id="Rectangle_14" data-name="Rectangle 14" width="2.835" height="2.835" transform="translate(94.711 108.886)" fill="#e6e6e6"/>
        <rect id="Rectangle_15" data-name="Rectangle 15" width="2.835" height="2.835" transform="translate(94.711 114.224)" fill="#e6e6e6"/>
        <rect id="Rectangle_16" data-name="Rectangle 16" width="2.835" height="2.835" transform="translate(94.711 119.438)" fill="#00aea0"/>
        <rect id="Rectangle_17" data-name="Rectangle 17" width="23.15" height="1.74" transform="translate(105.262 125.232)" fill="#e6e6e6"/>
        <rect id="Rectangle_18" data-name="Rectangle 18" width="35.749" height="1.74" transform="translate(105.262 130.34)" fill="#00aea0"/>
        <rect id="Rectangle_19" data-name="Rectangle 19" width="29.135" height="1.74" transform="translate(105.634 135.205)" fill="#e6e6e6"/>
        <rect id="Rectangle_20" data-name="Rectangle 20" width="17.008" height="1.74" transform="translate(105.262 140.543)" fill="#e6e6e6"/>
        <rect id="Rectangle_21" data-name="Rectangle 21" width="25.67" height="1.74" transform="translate(105.262 145.757)" fill="#e6e6e6"/>
        <rect id="Rectangle_22" data-name="Rectangle 22" width="2.835" height="2.835" transform="translate(94.711 124.684)" fill="#e6e6e6"/>
        <rect id="Rectangle_23" data-name="Rectangle 23" width="2.835" height="2.835" transform="translate(94.711 129.793)" fill="#00aea0"/>
        <rect id="Rectangle_24" data-name="Rectangle 24" width="2.835" height="2.835" transform="translate(94.711 134.657)" fill="#e6e6e6"/>
        <rect id="Rectangle_25" data-name="Rectangle 25" width="2.835" height="2.835" transform="translate(94.711 139.995)" fill="#e6e6e6"/>
        <rect id="Rectangle_26" data-name="Rectangle 26" width="2.835" height="2.835" transform="translate(94.711 145.209)" fill="#e6e6e6"/>
        <circle id="Ellipse_4" data-name="Ellipse 4" cx="19.39" cy="19.39" r="19.39" transform="translate(98.471 20.542)" fill="#fff"/>
        <path id="Path_15" data-name="Path 15" d="M170.18,55.383a9.558,9.558,0,1,0,9.558,9.558,9.558,9.558,0,0,0-9.558-9.558Zm0,2.868a2.868,2.868,0,1,1-2.868,2.868,2.867,2.867,0,0,1,2.868-2.868Zm0,13.8a6.963,6.963,0,0,1-5.735-3.061c.046-1.912,3.823-2.964,5.735-2.964s5.689,1.052,5.735,2.964a6.975,6.975,0,0,1-5.735,3.061Z" transform="translate(-52.479 -24.96)" fill="#00aea0"/>
        <ellipse id="Ellipse_5" data-name="Ellipse 5" cx="21.578" cy="4.423" rx="21.578" ry="4.423" transform="translate(171.78 178.755)" fill="#e6e6e6"/>
        <path id="Path_16" data-name="Path 16" d="M222.968,142.541l-2.834-.492s-5.792-2.673-6.143-.648,5.176,3.817,5.176,3.817l5.949-.636Z" transform="translate(-52.479 -24.96)" fill="#ffb8b8"/>
        <path id="Path_17" data-name="Path 17" d="M186.971,97.087,183,115.164l-13.252,1.872-.508,5.333,17.09.045,8.547-15.616Z" fill="#575a89"/>
        <path id="Path_18" data-name="Path 18" d="M186.971,97.087,183,115.164l-13.252,1.872-.508,5.333,17.09.045,8.547-15.616Z" opacity="0.2"/>
        <path id="Path_19" data-name="Path 19" d="M219.278,127.29l-2.022-2.045s-3.165-5.538-4.626-4.094,2,6.113,2,6.113l5.213,2.935Z" transform="translate(-52.479 -24.96)" fill="#ffb8b8"/>
        <path id="Path_20" data-name="Path 20" d="M247.138,116.331l2.49-.607a6.41,6.41,0,0,0,6.291-7.679h0a8.378,8.378,0,0,0-8.367-8.388h0a8.378,8.378,0,0,0-8.388,8.367h0a6.658,6.658,0,0,0,7.975,8.307Z" transform="translate(-52.479 -24.96)" fill="#2f2e41"/>
        <path id="Path_21" data-name="Path 21" d="M180.016,132.862l2.027,22.191,3.671,21.782,6.163.008-.795-21.367-3.254-25.89Z" fill="#2f2e41"/>
        <path id="Path_22" data-name="Path 22" d="M239.015,200.562l-4.112,2.46s-6.575.814-5.345,2.87,15.613.841,15.614.02-.4-5.342-1.226-5.343Z" transform="translate(-52.479 -24.96)" fill="#2f2e41"/>
        <path id="Path_23" data-name="Path 23" d="M250.688,155.905s-.116,3.172-3,8.1l.392,15.2,14.768,18.919L257.5,202.64l-18.053-20.567-4.489-24.659,5.76-5.745Z" transform="translate(-52.479 -24.96)" fill="#2f2e41"/>
        <path id="Path_24" data-name="Path 24" d="M261.617,198.126s4.93.828,4.105,2.881-2.891,11.5-8.231,10.262c0,0-2.465,0-1.641-1.646a29.736,29.736,0,0,1,1.647-2.874l.007-5.342Z" transform="translate(-52.479 -24.96)" fill="#2f2e41"/>
        <circle id="Ellipse_6" data-name="Ellipse 6" cx="6.163" cy="6.163" r="6.163" transform="translate(185.827 79.462)" fill="#ffb8b8"/>
        <path id="Path_25" data-name="Path 25" d="M194.862,89.737l-.009,6.985-6.574-.008.83-6.984Z" fill="#ffb8b8"/>
        <path id="Path_26" data-name="Path 26" d="M251.393,158.667l-4.079-.682a37.8,37.8,0,0,0-15.643.658l1.845-18.365.24-2.394.514-5.126s-1.778-6.755.832-9.037c3.186-2.786,6.006-5,6.006-5l6.227.5c3.482,6.942,2.727,15.667.379,25.066Z" transform="translate(-52.479 -24.96)" fill="#575a89"/>
        <path id="Path_27" data-name="Path 27" d="M244.6,120.169,230.87,132.585l-11.878-6.168-2.494,3.052,10.492,9.244a4.932,4.932,0,0,0,5.022.431l13.385-6.477Z" transform="translate(-52.479 -24.96)" fill="#575a89"/>
        <circle id="Ellipse_7" data-name="Ellipse 7" cx="3.976" cy="3.976" r="3.976" transform="translate(199.912 73.131)" fill="#2f2e41"/>
        <path id="Path_28" data-name="Path 28" d="M252.7,99.93a3.975,3.975,0,0,1,4.759-3.893,3.975,3.975,0,1,0-2.479,7.491,3.973,3.973,0,0,1-2.28-3.6Z" transform="translate(-52.479 -24.96)" fill="#2f2e41"/>
        <path id="Path_29" data-name="Path 29" d="M249.287,102.186l-5.361-.987-4.123,2.584a6.254,6.254,0,0,0-2.881,6.1l4.129-1.047.925-2.318h0a6.764,6.764,0,0,0,2.41,2.34c2.339,1.343,2.882,4.2,3.158,7.276l4.523-2.46,2.882-4.516Z" transform="translate(-52.479 -24.96)" fill="#2f2e41"/>
        <path id="Path_30" data-name="Path 30" d="M191.743,103.975l-10.706,11.343.24-2.394Z" opacity="0.2"/>
      </g>
    </g>
  </g>
</svg>
