<svg xmlns="http://www.w3.org/2000/svg" xmlns:xlink="http://www.w3.org/1999/xlink" width="52" height="52" viewBox="0 0 52 52">
  <defs>
    <filter id="Rectangle_5" x="0" y="0" width="52" height="52" filterUnits="userSpaceOnUse">
      <feOffset dy="3" input="SourceAlpha"/>
      <feGaussianBlur stdDeviation="3" result="blur"/>
      <feFlood flood-opacity="0.302"/>
      <feComposite operator="in" in2="blur"/>
      <feComposite in="SourceGraphic"/>
    </filter>
    <linearGradient id="linear-gradient" x1="0.5" x2="0.5" y2="1" gradientUnits="objectBoundingBox">
      <stop offset="0" stop-color="#eee"/>
      <stop offset="1" stop-color="#f2f2f2"/>
    </linearGradient>
  </defs>
  <g id="react-icon" transform="translate(3256 1479)">
    <g transform="matrix(1, 0, 0, 1, -3256, -1479)" filter="url(#Rectangle_5)">
      <rect id="Rectangle_5-2" data-name="Rectangle 5" width="34" height="34" rx="17" transform="translate(9 6)" fill="#181818"/>
    </g>
    <path id="Icon_awesome-react" data-name="Icon awesome-react" d="M20.42,9.2q-.4-.129-.791-.244c.044-.177.083-.354.122-.531.6-2.851.205-5.142-1.128-5.9-1.284-.722-3.379.029-5.5,1.837-.21.177-.415.364-.61.55-.132-.124-.269-.249-.405-.368C9.888,2.609,7.661,1.8,6.328,2.556c-1.279.727-1.66,2.884-1.123,5.582.054.268.112.531.181.8-.312.086-.62.182-.908.282C1.87,10.1,0,11.5,0,12.945c0,1.492,1.992,2.989,4.7,3.9.22.072.439.143.664.206-.073.287-.137.569-.2.861-.513,2.655-.112,4.759,1.167,5.481,1.318.746,3.535-.019,5.693-1.87.171-.148.342-.3.513-.464.215.206.439.4.664.593,2.09,1.76,4.155,2.473,5.43,1.751,1.318-.746,1.748-3.008,1.191-5.763q-.066-.316-.146-.646c.156-.043.308-.091.459-.139C22.959,15.939,25,14.461,25,12.945c0-1.449-1.924-2.855-4.58-3.75ZM13.813,5.134c1.816-1.55,3.511-2.157,4.282-1.722.825.464,1.143,2.339.625,4.8-.034.163-.068.32-.112.478a25.48,25.48,0,0,0-3.286-.507,24.261,24.261,0,0,0-2.08-2.54c.19-.177.376-.344.571-.512ZM8.164,15.427c.249.416.5.832.771,1.239a22.535,22.535,0,0,1-2.266-.359,22.05,22.05,0,0,1,.8-2.128c.225.421.454.837.7,1.248ZM6.685,9.673c.7-.153,1.45-.277,2.227-.373-.259.4-.513.8-.752,1.215s-.474.823-.693,1.244c-.308-.713-.566-1.411-.781-2.085Zm1.338,3.3c.322-.66.674-1.306,1.045-1.942s.771-1.253,1.191-1.861c.732-.053,1.479-.081,2.241-.081s1.514.029,2.241.081q.623.9,1.187,1.851t1.06,1.932q-.491.99-1.055,1.951c-.371.636-.767,1.253-1.182,1.865-.728.053-1.484.077-2.251.077s-1.509-.024-2.227-.067q-.637-.911-1.2-1.865C8.7,14.275,8.35,13.629,8.022,12.969Zm8.818,2.449c.249-.421.483-.847.713-1.277a21.924,21.924,0,0,1,.825,2.119,21.855,21.855,0,0,1-2.295.383C16.348,16.24,16.6,15.829,16.841,15.418Zm.7-3.659c-.229-.421-.464-.842-.708-1.253S16.348,9.7,16.089,9.3c.786.1,1.538.225,2.241.383A20.894,20.894,0,0,1,17.544,11.759ZM12.51,6.378A21.1,21.1,0,0,1,13.955,8.09c-.967-.043-1.938-.043-2.905,0C11.528,7.473,12.021,6.9,12.51,6.378ZM6.846,3.446c.82-.469,2.642.2,4.561,1.865.122.105.244.22.371.335a24.4,24.4,0,0,0-2.095,2.54,26.238,26.238,0,0,0-3.281.5c-.063-.244-.117-.493-.171-.741-.459-2.315-.156-4.061.615-4.5Zm-1.2,12.608c-.205-.057-.405-.12-.605-.187a10.043,10.043,0,0,1-3.076-1.492,2.142,2.142,0,0,1-.918-1.43c0-.875,1.543-1.994,3.77-2.755.278-.1.562-.182.845-.263a25.117,25.117,0,0,0,1.2,3.042A25.819,25.819,0,0,0,5.649,16.054Zm5.693,4.687a8.967,8.967,0,0,1-2.754,1.688,2.2,2.2,0,0,1-1.724.062c-.776-.44-1.1-2.128-.659-4.4.054-.268.112-.536.181-.8a24.906,24.906,0,0,0,3.315.469,25.347,25.347,0,0,0,2.109,2.554C11.655,20.464,11.5,20.607,11.343,20.741Zm1.2-1.162a22.737,22.737,0,0,1-1.479-1.736c.469.019.952.029,1.44.029s1-.01,1.484-.033a20.716,20.716,0,0,1-1.445,1.741Zm6.382,1.435a2.113,2.113,0,0,1-.806,1.5c-.776.44-2.432-.134-4.219-1.636-.205-.172-.41-.359-.62-.55a23.74,23.74,0,0,0,2.061-2.564,24.537,24.537,0,0,0,3.33-.5c.049.2.093.392.132.584A8.544,8.544,0,0,1,18.921,21.014Zm.889-5.142c-.137.043-.273.086-.415.124a24.008,24.008,0,0,0-1.245-3.051,23.88,23.88,0,0,0,1.2-3.008c.254.072.5.148.732.225,2.275.765,3.872,1.9,3.872,2.774,0,.937-1.7,2.148-4.141,2.937Zm-7.31-.717a2.191,2.191,0,1,0-2.236-2.191A2.213,2.213,0,0,0,12.5,15.155Z" transform="translate(-3242 -1469.251)" fill="url(#linear-gradient)"/>
  </g>
</svg>
